<svg width="30" height="31" viewBox="0 0 30 31" fill="none" xmlns="http://www.w3.org/2000/svg">
<path d="M15 28.4712C15 28.4712 15 28.4712 14.9988 28.4712C14.73 28.4712 14.4813 28.3862 14.2775 28.2412L14.2813 28.2437C13.9025 27.9787 4.99878 21.6462 4.99878 13.9249C4.99753 13.8624 4.99628 13.7887 4.99628 13.7149C4.99628 8.14244 9.44503 3.60744 14.9863 3.47119H14.9988C20.5513 3.60744 25.0013 8.14119 25.0013 13.7149C25.0013 13.7887 25 13.8624 24.9988 13.9362V13.9249C24.9988 21.6462 16.095 27.9787 15.7163 28.2437C15.5163 28.3862 15.2675 28.4712 14.9988 28.4712H15ZM15 5.97119C10.8275 6.10619 7.49753 9.52119 7.49753 13.7124C7.49753 13.7874 7.49878 13.8612 7.50128 13.9362V13.9249C7.50128 19.1999 12.9988 24.0549 15.0013 25.6499C17.0038 24.0562 22.5013 19.1999 22.5013 13.9249C22.5025 13.8612 22.5038 13.7874 22.5038 13.7124C22.5038 9.51994 19.1725 6.10494 15.0138 5.97119H15.0013H15ZM15 18.3574C14.9775 18.3574 14.95 18.3587 14.9225 18.3587C12.3488 18.3587 10.2625 16.2724 10.2625 13.6987C10.2625 11.1249 12.3488 9.03869 14.9225 9.03869C17.4963 9.03869 19.5825 11.1249 19.5825 13.6987C19.5825 13.7087 19.5825 13.7199 19.5825 13.7312C19.5825 16.2712 17.5363 18.3337 15.0013 18.3574H14.9988H15ZM15 11.5387C14.9763 11.5374 14.95 11.5374 14.9225 11.5374C13.7288 11.5374 12.7613 12.5049 12.7613 13.6987C12.7613 14.8924 13.7288 15.8599 14.9225 15.8599C16.1163 15.8599 17.0838 14.8924 17.0838 13.6987C17.0838 13.6887 17.0838 13.6762 17.0838 13.6637C17.0838 12.5049 16.1563 11.5624 15.0025 11.5387H15Z" fill="#FEBF00"/>
</svg>
