<svg width="34" height="36" viewBox="0 0 34 36" fill="none" xmlns="http://www.w3.org/2000/svg">
<path d="M31.13 7.46181L19.4683 1.13015C18.755 0.736812 17.905 0.503479 17 0.503479C16.0983 0.503479 15.25 0.733479 14.5117 1.14015L14.5383 1.12681L2.86832 7.46515C1.35999 8.29015 0.351658 9.85848 0.334991 11.6635V24.3351C0.351658 26.1435 1.36332 27.7135 2.84666 28.5251L2.87166 28.5385L14.5333 34.8685C15.2217 35.2468 16.0417 35.4735 16.9133 35.4835H16.9167C16.9467 35.4851 16.9717 35.5001 17.0017 35.5001C17.0317 35.5001 17.0533 35.4851 17.0817 35.4835C17.955 35.4751 18.775 35.2485 19.49 34.8568L19.4633 34.8701L31.1367 28.5318C32.6433 27.7068 33.65 26.1401 33.6683 24.3368V11.6618C33.65 9.85348 32.64 8.28348 31.1567 7.47348L31.1317 7.46015L31.13 7.46181ZM16.135 4.05348C16.385 3.91515 16.6833 3.83515 17 3.83515C17.32 3.83515 17.62 3.91681 17.88 4.06181L17.87 4.05681L28.15 9.63848L24.1317 11.9635L13.1883 5.65181L16.135 4.05348ZM17 16.0901L5.84833 9.63848L9.75333 7.51848L20.8033 13.8901L17 16.0901ZM4.46833 25.6135C3.99832 25.3668 3.68166 24.8885 3.66666 24.3351V12.2285L15.3333 18.9785V31.5118L4.46833 25.6135ZM29.5383 25.6085L18.6683 31.5101V18.9768L30.335 12.2268V24.3301C30.3217 24.8835 30.0067 25.3618 29.5467 25.6035L29.5383 25.6068V25.6085Z" fill="#BD1F17"/>
</svg>
